# xmcd
#
# Track frame offsets: 
#        150
#        11643
#        28395
#        42125
#        56934
#        70377
#        86918
#        97592
#        108451
#        126183
#        150491
#        159760
#        164688
#        174542
#        187956
#        194957
#        205293
#        231292
#        245919
#        274637
#        291752
#        330269
#        345413
#
# Disc length: 4751 seconds
#
# Revision: 0
# Processed by: cddbd v1.5.2PL0 Copyright (c) Steve Scherf et al.
# Submitted via: ExactAudioCopyFreeDBPlugin 1.0
#
DISCID=4f128d17
DTITLE=Big Bill Broonzy - Big Bill Broonzy Classic Box Set [Avid Roots
DTITLE=]
DYEAR=2015
DGENRE=Blues
TTITLE0=Key to the Highway
TTITLE1=Spoken Word Track 01
TTITLE2=Mindin' My Own Business
TTITLE3=Saturday Evening Blues
TTITLE4=Spoken Word Track 02
TTITLE5=Southbound Train
TTITLE6=Spoken Word Track 03
TTITLE7=Tell Me What Kind of Man Jesus Is (Ananias)
TTITLE8=Swing Low Sweet Chariot
TTITLE9=Joe Turner Blues
TTITLE10=Spoken Word Track 04
TTITLE11=Joe Turner Blues (instrumental)
TTITLE12=Spoken Word Track 05
TTITLE13=Plowhand Blues
TTITLE14=Spoken Word Track 06
TTITLE15=Goin' Down the Road Feelin' Bad
TTITLE16=Spoken Word Track 07
TTITLE17=Makin' My Getaway
TTITLE18=Spoken Word Track 08
TTITLE19=Stump Blues
TTITLE20=Spoken Word Track 09
TTITLE21=See See Rider
TTITLE22=I'm Gonna Move to the Outskirts of Town
EXTD=
EXTT0=
EXTT1=
EXTT2=
EXTT3=
EXTT4=
EXTT5=
EXTT6=
EXTT7=
EXTT8=
EXTT9=
EXTT10=
EXTT11=
EXTT12=
EXTT13=
EXTT14=
EXTT15=
EXTT16=
EXTT17=
EXTT18=
EXTT19=
EXTT20=
EXTT21=
EXTT22=
PLAYORDER=
